<svg id="Ebene_1" data-name="Ebene 1" xmlns="http://www.w3.org/2000/svg" viewBox="0 0 283.46 283.46"><defs><style>.cls-1{fill:#312783;}.cls-2{fill:none;}</style></defs><polygon class="cls-1" points="7.69 283.46 0 283.46 0 275.77 7.69 283.46"/><polygon class="cls-1" points="31.19 283.46 19.47 283.46 0 263.99 0 252.27 31.19 283.46"/><polygon class="cls-1" points="54.7 283.46 42.98 283.46 0 240.48 0 228.76 54.7 283.46"/><polygon class="cls-1" points="78.2 283.46 66.48 283.46 0 216.98 0 205.26 78.2 283.46"/><polygon class="cls-1" points="0 181.75 101.71 283.46 89.99 283.46 0 193.47 0 181.75"/><polygon class="cls-1" points="125.21 283.46 113.49 283.46 0 169.97 0 158.25 125.21 283.46"/><polygon class="cls-1" points="148.71 283.46 136.99 283.46 0 146.46 0 134.74 148.71 283.46"/><polygon class="cls-1" points="172.21 283.46 160.49 283.46 0 122.96 0 111.24 172.21 283.46"/><polygon class="cls-1" points="195.73 283.46 184.01 283.46 0 99.45 0 87.73 195.73 283.46"/><polygon class="cls-1" points="219.23 283.46 207.51 283.46 0 75.95 0 64.23 219.23 283.46"/><polygon class="cls-1" points="242.73 283.46 231.01 283.46 0 52.44 0 40.72 242.73 283.46"/><polygon class="cls-1" points="266.24 283.46 254.52 283.46 0 28.94 0 17.22 266.24 283.46"/><polygon class="cls-1" points="283.46 277.18 283.46 283.46 278.02 283.46 0 5.43 0 0 6.29 0 283.46 277.18"/><polygon class="cls-1" points="283.46 253.67 283.46 265.39 18.07 0 29.79 0 283.46 253.67"/><polygon class="cls-1" points="283.46 230.16 283.46 241.88 41.58 0 53.3 0 283.46 230.16"/><polygon class="cls-1" points="283.46 206.67 283.46 218.39 65.08 0 76.8 0 283.46 206.67"/><polygon class="cls-1" points="283.46 183.16 283.46 194.88 88.59 0 100.31 0 283.46 183.16"/><polygon class="cls-1" points="283.46 159.65 283.46 171.37 112.09 0 123.81 0 283.46 159.65"/><polygon class="cls-1" points="283.46 136.15 283.46 147.87 135.6 0 147.32 0 283.46 136.15"/><polygon class="cls-1" points="283.46 112.64 283.46 124.36 159.1 0 170.82 0 283.46 112.64"/><polygon class="cls-1" points="283.46 89.14 283.46 100.86 182.6 0 194.32 0 283.46 89.14"/><polygon class="cls-1" points="283.46 65.63 283.46 77.35 206.11 0 217.83 0 283.46 65.63"/><polygon class="cls-1" points="283.46 42.13 283.46 53.85 229.61 0 241.33 0 283.46 42.13"/><polygon class="cls-1" points="283.46 18.97 283.46 30.7 252.8 0 264.51 0 283.46 18.97"/><polygon class="cls-1" points="283.46 0 283.46 7.15 276.32 0 283.46 0"/><rect class="cls-2" width="283.46" height="283.46"/></svg>